<svg width="75" height="74" viewBox="0 0 75 74" fill="none" xmlns="http://www.w3.org/2000/svg">
<mask id="path-1-outside-1_1_9" maskUnits="userSpaceOnUse" x="4" y="0" width="71" height="74" fill="black">
<rect fill="white" x="4" width="71" height="74"/>
<path d="M35.5 70C41.338 70 47.0859 68.6616 52.2346 66.1034C57.3832 63.5452 61.7737 59.8461 65.0172 55.3338C68.2606 50.8215 70.2568 45.6353 70.8291 40.2346C71.4013 34.8338 70.5318 29.3852 68.2977 24.3714C66.0636 19.3577 62.5338 14.9334 58.021 11.4907C53.5081 8.04788 48.1515 5.69282 42.4257 4.63409C36.6999 3.57535 30.7815 3.84563 25.1949 5.42097C19.6083 6.99631 14.5258 9.82809 10.3977 13.6655L35.5 37V70Z"/>
</mask>
<path d="M35.5 70C41.338 70 47.0859 68.6616 52.2346 66.1034C57.3832 63.5452 61.7737 59.8461 65.0172 55.3338C68.2606 50.8215 70.2568 45.6353 70.8291 40.2346C71.4013 34.8338 70.5318 29.3852 68.2977 24.3714C66.0636 19.3577 62.5338 14.9334 58.021 11.4907C53.5081 8.04788 48.1515 5.69282 42.4257 4.63409C36.6999 3.57535 30.7815 3.84563 25.1949 5.42097C19.6083 6.99631 14.5258 9.82809 10.3977 13.6655L35.5 37V70Z" fill="#120F0F" fill-opacity="0.77"/>
<path d="M35.5 70C41.338 70 47.0859 68.6616 52.2346 66.1034C57.3832 63.5452 61.7737 59.8461 65.0172 55.3338C68.2606 50.8215 70.2568 45.6353 70.8291 40.2346C71.4013 34.8338 70.5318 29.3852 68.2977 24.3714C66.0636 19.3577 62.5338 14.9334 58.021 11.4907C53.5081 8.04788 48.1515 5.69282 42.4257 4.63409C36.6999 3.57535 30.7815 3.84563 25.1949 5.42097C19.6083 6.99631 14.5258 9.82809 10.3977 13.6655L35.5 37V70Z" stroke="#F7F7F7" stroke-width="8" mask="url(#path-1-outside-1_1_9)"/>
<path d="M14.2 28.2311V56.5306L35.5 37L56.7999 56.5306L14.2 17.4694H50.7142" stroke="white" stroke-width="4"/>
</svg>
